<svg width="202" height="49" viewBox="0 0 202 49" fill="none" xmlns="http://www.w3.org/2000/svg">
<path fill-rule="evenodd" clip-rule="evenodd" d="M10.686 0.0672654C7.40897 -0.424536 4.35375 1.83333 3.86194 5.11034L0.0672656 30.3953C-0.424536 33.6723 1.83332 36.7276 5.11033 37.2194L82.1915 48.7874C85.4685 49.2792 88.5237 47.0214 89.0155 43.7444L91.8364 24.9479C91.9501 24.9374 92.0665 24.9322 92.1858 24.9322C93.0498 24.9322 93.7578 25.2202 94.3098 25.7962C94.8858 26.3482 95.1738 27.0802 95.1738 27.9922V37.9642H100.682V26.7682C100.682 25.5682 100.394 24.4642 99.8178 23.4562C99.2418 22.4482 98.4498 21.6442 97.4418 21.0442C96.4578 20.4202 95.3178 20.1082 94.0218 20.1082C93.5101 20.1082 93.0174 20.15 92.544 20.2335L92.8102 18.4594C93.302 15.1824 91.0442 12.1271 87.7671 11.6353L10.686 0.0672654ZM89.1258 21.8389C89.5018 21.5037 89.9218 21.2148 90.3858 20.9722C91.0546 20.6155 91.774 20.3693 92.544 20.2335L91.8364 24.9479C91.3787 24.9899 90.9672 25.1167 90.6018 25.3282C90.1458 25.5682 89.7858 25.9282 89.5218 26.4082C89.2578 26.8642 89.1258 27.3922 89.1258 27.9922V37.9642H83.6178V20.4682H89.1258V21.8389ZM9.41902 37.0282C11.027 37.9162 12.875 38.3602 14.963 38.3602C17.051 38.3602 18.887 37.9162 20.471 37.0282C22.055 36.1402 23.291 34.9162 24.179 33.3562C25.067 31.7962 25.511 30.0082 25.511 27.9922V12.5482H19.823V28.3162C19.823 29.3242 19.607 30.2002 19.175 30.9442C18.767 31.6642 18.203 32.2282 17.483 32.6362C16.763 33.0202 15.923 33.2122 14.963 33.2122C14.051 33.2122 13.211 33.0202 12.443 32.6362C11.699 32.2282 11.111 31.6522 10.679 30.9082C10.247 30.1642 10.031 29.2882 10.031 28.2802V12.5482H4.34302V27.9562C4.34302 29.9722 4.78702 31.7722 5.67502 33.3562C6.58702 34.9162 7.83502 36.1402 9.41902 37.0282ZM39.8488 28.9096L45.5115 37.9642H52.1355L43.3816 24.769L51.7035 12.5482H45.2595L40.0197 20.7021L34.6755 12.5482H27.9435L36.516 24.8711L27.4755 37.9642H33.9195L39.8488 28.9096ZM61.9734 12.5482V37.9642H66.2934H67.6254H80.2254V33.0682H67.6254V27.3442H78.9654V22.6282H67.6254V17.4082H80.0454V12.5482H67.6254H66.2934H61.9734ZM104.219 20.4682V37.9642H109.727V28.3522C109.727 27.2242 109.991 26.3842 110.519 25.8322C111.071 25.2562 111.803 24.9682 112.715 24.9682C113.171 24.9682 113.579 25.0402 113.939 25.1842C114.299 25.3282 114.599 25.5322 114.839 25.7962L118.115 21.6562C117.635 21.1282 117.071 20.7442 116.423 20.5042C115.799 20.2402 115.067 20.1082 114.227 20.1082C112.307 20.1082 110.807 20.6722 109.727 21.8002V20.4682H104.219ZM119.583 20.4682V37.9642H125.091V20.4682H119.583ZM120.195 17.1922C120.771 17.7682 121.491 18.0562 122.355 18.0562C123.219 18.0562 123.927 17.7682 124.479 17.1922C125.031 16.5922 125.307 15.8722 125.307 15.0322C125.307 14.1682 125.031 13.4482 124.479 12.8722C123.927 12.2962 123.219 12.0082 122.355 12.0082C121.491 12.0082 120.771 12.2962 120.195 12.8722C119.643 13.4482 119.367 14.1682 119.367 15.0322C119.367 15.8722 119.643 16.5922 120.195 17.1922ZM132.533 37.1722C133.997 37.9642 135.629 38.3602 137.429 38.3602C138.845 38.3602 140.129 38.1202 141.281 37.6402C142.433 37.1362 143.465 36.4042 144.377 35.4442L140.885 31.9162C140.477 32.3722 139.985 32.7322 139.409 32.9962C138.857 33.2362 138.221 33.3562 137.501 33.3562C136.733 33.3562 136.037 33.1762 135.413 32.8162C134.789 32.4562 134.297 31.9642 133.937 31.3402C133.601 30.7162 133.433 29.9962 133.433 29.1802C133.433 28.3642 133.601 27.6562 133.937 27.0562C134.297 26.4322 134.777 25.9522 135.377 25.6162C136.001 25.2562 136.709 25.0762 137.501 25.0762C138.197 25.0762 138.809 25.1842 139.337 25.4002C139.889 25.6162 140.369 25.9522 140.777 26.4082L144.305 22.8802C143.417 21.9442 142.397 21.2482 141.245 20.7922C140.117 20.3122 138.869 20.0722 137.501 20.0722C135.677 20.0722 134.033 20.4682 132.569 21.2602C131.105 22.0522 129.941 23.1442 129.077 24.5362C128.237 25.9042 127.817 27.4642 127.817 29.2162C127.817 30.9442 128.237 32.5042 129.077 33.8962C129.917 35.2882 131.069 36.3802 132.533 37.1722ZM158.385 27.9922V37.9642H163.893V26.7682C163.893 25.4482 163.605 24.2962 163.029 23.3122C162.477 22.3042 161.685 21.5242 160.653 20.9722C159.621 20.3962 158.421 20.1082 157.053 20.1082C155.709 20.1082 154.521 20.3962 153.489 20.9722C153.067 21.198 152.683 21.464 152.337 21.7701V11.8282H146.829V37.9642H152.337V27.9922C152.337 27.3922 152.469 26.8642 152.733 26.4082C152.997 25.9282 153.357 25.5682 153.813 25.3282C154.269 25.0642 154.797 24.9322 155.397 24.9322C156.261 24.9322 156.969 25.2202 157.521 25.7962C158.097 26.3482 158.385 27.0802 158.385 27.9922ZM170.994 37.2082C172.482 37.9762 174.174 38.3602 176.07 38.3602C177.534 38.3602 178.878 38.1082 180.102 37.6042C181.326 37.1002 182.37 36.3442 183.234 35.3362L180.21 32.3122C179.682 32.9122 179.07 33.3682 178.374 33.6802C177.678 33.9682 176.898 34.1122 176.034 34.1122C175.098 34.1122 174.282 33.9202 173.586 33.5362C172.914 33.1282 172.386 32.5642 172.002 31.8442C171.881 31.5944 171.781 31.3284 171.701 31.0461L184.242 31.0162C184.338 30.5602 184.398 30.1642 184.422 29.8282C184.47 29.4682 184.494 29.1322 184.494 28.8202C184.494 27.1162 184.11 25.6042 183.342 24.2842C182.598 22.9642 181.566 21.9322 180.246 21.1882C178.926 20.4442 177.402 20.0722 175.674 20.0722C173.898 20.0722 172.302 20.4682 170.886 21.2602C169.47 22.0522 168.342 23.1442 167.502 24.5362C166.686 25.9042 166.278 27.4642 166.278 29.2162C166.278 30.9682 166.698 32.5402 167.538 33.9322C168.378 35.3242 169.53 36.4162 170.994 37.2082ZM171.703 27.265C171.775 27.0125 171.862 26.7749 171.966 26.5522C172.326 25.8322 172.818 25.2802 173.442 24.8962C174.09 24.4882 174.846 24.2842 175.71 24.2842C176.526 24.2842 177.21 24.4642 177.762 24.8242C178.338 25.1602 178.77 25.6642 179.058 26.3362C179.179 26.6071 179.276 26.9095 179.35 27.2434L171.703 27.265ZM192.661 20.4682H187.153V37.9642H192.661V28.3522C192.661 27.2242 192.925 26.3842 193.453 25.8322C194.005 25.2562 194.737 24.9682 195.649 24.9682C196.105 24.9682 196.513 25.0402 196.873 25.1842C197.233 25.3282 197.533 25.5322 197.773 25.7962L201.049 21.6562C200.569 21.1282 200.005 20.7442 199.357 20.5042C198.733 20.2402 198.001 20.1082 197.161 20.1082C195.241 20.1082 193.741 20.6722 192.661 21.8002V20.4682Z" fill="#27215B"/>
</svg>
